<svg xmlns="http://www.w3.org/2000/svg" width="576" height="482" viewBox="0 0 576 482"><defs><style type="text/css"/></defs><g transform="translate(100.97297974644665 116.39797974644665) scale(1)"><g class="relationship"><g transform="translate(0 0) rotate(0)" stroke-width="5" stroke="#000000"><path d="M 59 0 L 277.1378493822517 0"/><polygon points="-24.8621506177483,0 -27.62461179749811,9.20820393249937 0,0 -27.62461179749811,-9.20820393249937" fill="#000000" transform="translate(302 0) rotate(0)" stroke="none"/></g><g transform="translate(168.06892469112586 0) rotate(0) translate(0 -32.2)"><g transform="translate(0 0)"><g transform="translate(-64.125 0)" fill="#ffffff" stroke="#000000" stroke-width="0"><rect x="0" y="0" width="128.25" height="26" rx="5" ry="5" stroke="none"/><text xml:space="preserve" x="5" y="17.5" stroke="none" text-anchor="left" font-family="sans-serif" font-size="16" font-weight="normal" fill="#000000">LIVED_DURING</text></g></g><g transform="translate(0 26)"><g transform="translate(-24.890625 0)" fill="white"><rect x="0" y="0" width="49.78125" height="38.4" rx="0" ry="0" stroke="none"/><g font-family="sans-serif" font-size="16" font-weight="normal" fill="#000000" text-anchor="end"><text xml:space="preserve" x="40.890625" y="14.1" stroke="none">from:</text><text xml:space="preserve" x="45.3359375" y="14.1" stroke="none" text-anchor="start"></text><text xml:space="preserve" x="40.890625" y="33.3" stroke="none" text-anchor="end">to:</text><text xml:space="preserve" x="45.3359375" y="33.3" stroke="none" text-anchor="start"></text></g></g></g></g></g><g class="relationship"><g transform="translate(0 0) rotate(90)" stroke-width="5" stroke="#000000"><path d="M 59 0 L 206.1378493822517 0"/><polygon points="-24.8621506177483,0 -27.62461179749811,9.20820393249937 0,0 -27.62461179749811,-9.20820393249937" fill="#000000" transform="translate(231 0) rotate(0)" stroke="none"/></g><g transform="translate(8.11750546446969e-15 132.56892469112586) rotate(270) translate(0 -13)"><g transform="translate(0 0)"><g transform="translate(-40.5703125 0)" fill="#ffffff" stroke="#000000" stroke-width="0"><rect x="0" y="0" width="81.140625" height="26" rx="5" ry="5" stroke="none"/><text xml:space="preserve" x="5" y="17.5" stroke="none" text-anchor="left" font-family="sans-serif" font-size="16" font-weight="normal" fill="#000000">LIVED_IN</text></g></g></g></g><g class="relationship"><g transform="translate(0 0) rotate(38.7757523376746)" stroke-width="5" stroke="#000000"><path d="M 59 0 L 379.1940014847802 0"/><polygon points="-24.8621506177483,0 -27.62461179749811,9.20820393249937 0,0 -27.62461179749811,-9.20820393249937" fill="#000000" transform="translate(404.0561521025285 0) rotate(0)" stroke="none"/></g><g transform="translate(170.80869546570685 137.21474150984758) rotate(38.7757523376746) translate(0 -13)"><g transform="translate(0 0)"><g transform="translate(-55.671875 0)" fill="#ffffff" stroke="#000000" stroke-width="0"><rect x="0" y="0" width="111.34375" height="26" rx="5" ry="5" stroke="none"/><text xml:space="preserve" x="5" y="17.5" stroke="none" text-anchor="left" font-family="sans-serif" font-size="16" font-weight="normal" fill="#000000">MEMBER_OF</text></g></g></g></g><g class="node"><g fill="#ffffff" stroke="#000000" stroke-width="4"><circle cx="0" cy="0" r="52"/></g><g transform="translate(0 0)"><g transform="scale(0.4076387826235159) translate(0 -27)"><g transform="translate(0 0)"><g transform="translate(-107.0390625 0)"><g fill="#ffffff" stroke="#000000" stroke-width="4"><rect x="0" y="0" width="214.078125" height="54" rx="27" ry="27"/><text xml:space="preserve" x="27" y="37.5" stroke="none" font-family="sans-serif" font-size="40" font-weight="normal" fill="#000000">Dinosaur</text></g></g></g></g><g transform="translate(-39.597979746446654 -116.39797974644665)"><g transform="translate(0 0)"><g transform="translate(-61.375 0)" fill="white"><rect x="0" y="0" width="61.375" height="76.8" rx="0" ry="0" stroke="none"/><g font-family="sans-serif" font-size="16" font-weight="normal" fill="#000000" text-anchor="end"><text xml:space="preserve" x="52.484375" y="14.1" stroke="none">name:</text><text xml:space="preserve" x="56.9296875" y="14.1" stroke="none" text-anchor="start"></text><text xml:space="preserve" x="52.484375" y="33.3" stroke="none" text-anchor="end">length:</text><text xml:space="preserve" x="56.9296875" y="33.3" stroke="none" text-anchor="start"></text><text xml:space="preserve" x="52.484375" y="52.5" stroke="none" text-anchor="end">diet:</text><text xml:space="preserve" x="56.9296875" y="52.5" stroke="none" text-anchor="start"></text><text xml:space="preserve" x="52.484375" y="71.7" stroke="none" text-anchor="end">url:</text><text xml:space="preserve" x="56.9296875" y="71.7" stroke="none" text-anchor="start"></text></g></g></g></g></g></g><g class="node"><g fill="#ffffff" stroke="#000000" stroke-width="4"><circle cx="361" cy="0" r="52"/></g><g transform="translate(361 0)"><g transform="scale(0.5055809537036109) translate(0 -27)"><g transform="translate(0 0)"><g transform="translate(-84.8125 0)"><g fill="#ffffff" stroke="#000000" stroke-width="4"><rect x="0" y="0" width="169.625" height="54" rx="27" ry="27"/><text xml:space="preserve" x="27" y="37.5" stroke="none" font-family="sans-serif" font-size="40" font-weight="normal" fill="#000000">Period</text></g></g></g></g><g transform="translate(56 -9.6)"><g transform="translate(0 0)"><g transform="translate(0 0)" fill="white"><rect x="0" y="0" width="57.8046875" height="19.2" rx="0" ry="0" stroke="none"/><g font-family="sans-serif" font-size="16" font-weight="normal" fill="#000000" text-anchor="end"><text xml:space="preserve" x="48.9140625" y="14.1" stroke="none">name:</text><text xml:space="preserve" x="53.359375" y="14.1" stroke="none" text-anchor="start"></text></g></g></g></g></g></g><g class="node"><g fill="#ffffff" stroke="#000000" stroke-width="4"><circle cx="-4.124339402320109e-32" cy="290" r="52"/></g><g transform="translate(-4.124339402320109e-32 290)"><g transform="scale(0.4770701643755875) translate(0 -27)"><g transform="translate(0 0)"><g transform="translate(-90.37890625 0)"><g fill="#ffffff" stroke="#000000" stroke-width="4"><rect x="0" y="0" width="180.7578125" height="54" rx="27" ry="27"/><text xml:space="preserve" x="27" y="37.5" stroke="none" font-family="sans-serif" font-size="40" font-weight="normal" fill="#000000">Region</text></g></g></g></g><g transform="translate(3.429011037612589e-15 56)"><g transform="translate(0 0)"><g transform="translate(-28.90234375 0)" fill="white"><rect x="0" y="0" width="57.8046875" height="19.2" rx="0" ry="0" stroke="none"/><g font-family="sans-serif" font-size="16" font-weight="normal" fill="#000000" text-anchor="end"><text xml:space="preserve" x="48.9140625" y="14.1" stroke="none">name:</text><text xml:space="preserve" x="53.359375" y="14.1" stroke="none" text-anchor="start"></text></g></g></g></g></g></g><g class="node"><g fill="#ffffff" stroke="#000000" stroke-width="4"><circle cx="361" cy="290" r="52"/></g><g transform="translate(361 290)"><g transform="scale(0.5179111119438962) translate(0 -27)"><g transform="translate(0 0)"><g transform="translate(-82.5859375 0)"><g fill="#ffffff" stroke="#000000" stroke-width="4"><rect x="0" y="0" width="165.171875" height="54" rx="27" ry="27"/><text xml:space="preserve" x="27" y="37.5" stroke="none" font-family="sans-serif" font-size="40" font-weight="normal" fill="#000000">Group</text></g></g></g></g><g transform="translate(39.59797974644666 39.597979746446654)"><g transform="translate(0 0)"><g transform="translate(0 0)" fill="white"><rect x="0" y="0" width="57.8046875" height="19.2" rx="0" ry="0" stroke="none"/><g font-family="sans-serif" font-size="16" font-weight="normal" fill="#000000" text-anchor="end"><text xml:space="preserve" x="48.9140625" y="14.1" stroke="none">name:</text><text xml:space="preserve" x="53.359375" y="14.1" stroke="none" text-anchor="start"></text></g></g></g></g></g></g></g></svg>